<svg xmlns="http://www.w3.org/2000/svg" viewBox="-6 -6 102 78" fill="none">
  <path fill-rule="evenodd" clip-rule="evenodd" d="M63.0917 64.9751V29.3846C63.0917 17.9183 59.4461 2.0248 38.8552 0.241336C22.4648 -1.17832 12.1171 3.96749 5.94117 7.77979C5.84151 7.8413 5.8031 7.96617 5.8473 8.07596L11.8129 22.8931C11.8707 23.0367 12.0387 23.0925 12.1649 23.0055C19.6267 17.8643 40.404 13.3887 40.3991 28.499C40.3991 28.6797 40.2151 28.8076 40.0574 28.7246C28.6614 22.7263 0 24.3374 0 45.1507V45.6284C0 54.7059 6.23222 66.1721 21.9282 66.1721C29.8855 66.1721 35.3923 64.6973 41.5615 60.6864C41.7215 60.5825 41.9329 60.6986 41.9329 60.8918V64.9751C41.9329 65.1085 42.0391 65.2166 42.1701 65.2166H62.8545C62.9855 65.2166 63.0917 65.1085 63.0917 64.9751ZM31.5458 39.4176C37.3933 39.4176 40.3941 41.3286 40.3941 43.7174C40.3941 46.1062 38.0858 48.495 31.5458 48.495C25.6983 48.495 24.2364 46.1062 24.2364 44.1952C24.2364 41.8064 25.6983 39.4176 31.5458 39.4176Z" fill="#E6302B"/>
  <path fill-rule="evenodd" clip-rule="evenodd" d="M90.0366 40.5651V65.2125C90.0366 65.2731 90.0144 65.3285 89.9778 65.3708C89.9991 65.3253 90.0111 65.2746 90.0111 65.2213V61.9167V59.4809V56.1774C90.0111 55.9792 89.8469 55.8185 89.6443 55.8185H86.2697H86.2688C86.0067 55.8191 85.5519 56.1035 85.843 56.4968C86.237 56.7456 86.4964 57.1687 86.4964 57.6488C86.4964 58.4146 85.8365 59.0354 85.0225 59.0354C84.2086 59.0354 83.5487 58.4146 83.5487 57.6488C83.5487 57.1707 83.8059 56.7491 84.1973 56.4998C84.4209 56.1839 84.2385 55.8192 83.7767 55.8185H83.7754H80.4008C80.1983 55.8185 80.0341 55.9792 80.0341 56.1774V59.4819C80.032 59.7387 79.7418 60.1807 79.3409 59.8966C79.0865 59.511 78.6541 59.2573 78.1634 59.2573C77.3807 59.2573 76.7462 59.9029 76.7462 60.6993C76.7462 61.4957 77.3807 62.1414 78.1634 62.1414C78.6521 62.1414 79.083 61.8897 79.3377 61.5068C79.6599 61.2884 80.0317 61.4656 80.0341 61.9152V65.2213C80.0341 65.3093 80.0665 65.3899 80.1203 65.4524H75.5063C75.3755 65.4524 75.2696 65.345 75.2696 65.2125V62.6317C75.2696 62.4397 75.0575 62.3244 74.897 62.4264C70.5898 65.1615 65.6529 66.1721 61.308 66.1721C50.3535 66.1721 46.0039 58.1907 46.0039 51.8721V51.5395C46.0039 37.1143 65.8351 35.9403 73.8571 40.0519C74.0153 40.133 74.2004 40.0086 74.1985 39.8289C74.0926 29.5034 59.8176 32.5307 54.5681 36.0742C54.4414 36.1598 54.2721 36.1053 54.2144 35.9625L50.1076 25.789C50.0636 25.68 50.1023 25.5559 50.2016 25.4949C54.5178 22.8445 61.7277 19.2948 73.1216 20.2791C87.4923 21.5205 90.0366 32.5837 90.0366 40.5651ZM74.1956 50.5418C74.1956 48.879 72.1014 47.5488 68.0203 47.5488C63.9392 47.5488 62.9189 49.2116 62.9189 50.8744C62.9189 52.2046 63.9392 53.8674 68.0203 53.8674C72.5846 53.8674 74.1956 52.2046 74.1956 50.5418Z" fill="#408AF3"/>
</svg>